# xmcd CD database file
#
# Track frame offsets:
#	150
#	36860
#	74656
#	103908
#
# Disc length: 1788 seconds
#
# Revision: 0
# Processed by: cddbd v1.5.2PL0 Copyright (c) Steve Scherf et al.
# Submitted via: CDex 1.51
#
DISCID=3806fa04
DTITLE=Paradox Ensemble - Entanglement
DYEAR=2013
DGENRE=Jazz
TTITLE0=Hitch Slap
TTITLE1=LJM
TTITLE2=Entanglement
TTITLE3=Photo 51
EXTD=YEAR: 2013
EXTT0=
EXTT1=
EXTT2=
EXTT3=
PLAYORDER=
